<svg width="177" height="288" fill="none" xmlns="http://www.w3.org/2000/svg"><path d="M198.946 143C214.426 127.848 224 106.9 224 83.77 224 37.504 185.71 0 138.476 0 114.856 0 92.975 10.337 77.5 25.5L198.946 143z" fill="#51CEF1"/><path d="M141.908 161.895c-46.537 0-84.262-36.953-84.262-82.537 0-22.79 9.428-43.419 24.674-58.358L.605 101.042c30.498 29.873 49.358 71.136 49.358 116.721 0 45.584-18.86 86.847-49.358 116.721l200.876-196.763c-15.246 14.934-36.312 24.168-59.578 24.168l.005.006z" fill="#51CEF1"/><path d="M138.525 167.995c23.616 0 44.994-9.372 60.475-24.529L78.045 25C62.569 40.162 53 61.104 53 84.233 53 130.497 91.293 168 138.53 168l-.005-.005z" fill="#51CEF1"/></svg>