<svg width="122" height="54" fill="none" xmlns="http://www.w3.org/2000/svg"><g clip-path="url(#clip0_133_6645)"><path d="M3.055 36.651C1.168 38.491 0 41.031 0 43.838 0 49.45 4.67 54 10.43 54c2.88 0 5.487-1.138 7.375-2.977L3.055 36.652v-.001z" fill="#FF9B07"/><path d="M27.499 12.833L3.055 36.651a10.535 10.535 0 017.375-2.976c5.76 0 10.43 4.55 10.43 10.163 0 2.806-1.168 5.347-3.055 7.186l9.695-9.447c-3.775-3.678-6.11-8.759-6.11-14.372 0-5.613 2.335-10.693 6.11-14.371h-.001z" fill="#FF9B07"/><path d="M10.43 33.675c-2.88 0-5.487 1.137-7.375 2.976l14.75 14.372c1.887-1.838 3.054-4.379 3.054-7.186 0-5.613-4.669-10.163-10.43-10.163v.001z" fill="#FF9B07"/><path d="M81.862 17.348c1.888-1.838 3.056-4.38 3.056-7.185C84.918 4.55 80.248 0 74.488 0 71.608 0 69 1.138 67.113 2.977l14.75 14.371z" fill="#51CEF1"/><path d="M74.488 20.325c-5.76 0-10.43-4.55-10.43-10.163 0-2.806 1.167-5.346 3.054-7.186l-10.114 9.856c3.775 3.678 6.11 8.76 6.11 14.372 0 5.613-2.335 10.694-6.11 14.372l24.864-24.228a10.535 10.535 0 01-7.374 2.976z" fill="#51CEF1"/><path d="M74.488 20.325c2.88 0 5.487-1.137 7.374-2.976L67.114 2.976c-1.887 1.84-3.054 4.38-3.054 7.187 0 5.613 4.67 10.163 10.43 10.163v-.001z" fill="#51CEF1"/><path opacity=".45" d="M27.499 12.836l.004-.004-.004.004z" fill="#000"/><path d="M27.5 41.577a20.948 20.948 0 007.99 4.856l-6.487-6.32-1.503 1.465z" fill="#2A8CE3"/><path opacity=".45" d="M56.998 12.833L29.003 40.112l27.995-27.28z" fill="#000"/><path d="M56.998 12.833c-3.775-3.679-8.99-5.953-14.75-5.953S31.275 9.154 27.5 12.832l-.001.001c-3.775 3.679-6.11 8.76-6.11 14.372s2.335 10.694 6.11 14.372l1.504-1.466 27.996-27.279h-.001z" fill="#FF9B07"/><path d="M56.998 12.833c-3.775-3.679-8.99-5.953-14.75-5.953S31.275 9.154 27.5 12.832l-.001.001c-3.775 3.679-6.11 8.76-6.11 14.372s2.335 10.694 6.11 14.372l1.504-1.466 27.996-27.279h-.001z" fill="#FF385D"/><path d="M56.998 12.833L29.003 40.112l6.486 6.32a21.317 21.317 0 006.76 1.097c5.759 0 10.974-2.274 14.749-5.953 3.775-3.678 6.11-8.76 6.11-14.372 0-5.613-2.335-10.694-6.11-14.372z" fill="#51CEF1"/><path d="M56.998 12.833L29.003 40.112l6.486 6.32a21.317 21.317 0 006.76 1.097c5.759 0 10.974-2.274 14.749-5.953 3.775-3.678 6.11-8.76 6.11-14.372 0-5.613-2.335-10.694-6.11-14.372z" fill="#2A8CE3"/><path d="M100.235 40.324c1.009 0 1.785.187 2.33.561.545.368.818.919.818 1.654 0 .774-.297 1.362-.891 1.763-.586.394-1.411.592-2.477.592h-3.526v-7.015h1.208v2.445h2.538zm-.269 3.778c.708 0 1.249-.13 1.623-.391.383-.26.574-.645.574-1.152 0-.495-.187-.859-.562-1.093-.374-.233-.919-.35-1.635-.35h-2.269v2.986h2.27zm-14.007.872c-.122 0-.244-.007-.366-.02a5.782 5.782 0 01-.403-.06l.085-.892c.13.026.26.04.391.04.358 0 .643-.117.854-.351.212-.234.366-.588.464-1.062.106-.474.175-1.072.207-1.794l.134-2.956h6.016v7.015h-1.196V38.49l.293.26h-4.332l.269-.27-.098 2.325a13.774 13.774 0 01-.17 1.824c-.09.52-.224.955-.403 1.303-.18.347-.411.607-.696.781-.276.174-.626.26-1.05.26zm-7.089-4.069h4.392v.852h-4.393v-.852zm.11 3.117h4.977v.872H77.76v-7.015h6.028v.872H78.98v5.27zm-10.634.872v-7.015h6.443v.852h-5.235v2.004h2.66c1.017 0 1.79.174 2.319.521.528.347.793.852.793 1.513 0 .681-.29 1.206-.867 1.573-.57.368-1.387.552-2.452.552h-3.66zm1.208-.792h2.404c.708 0 1.24-.11 1.598-.33.366-.221.55-.549.55-.983 0-.842-.716-1.263-2.148-1.263h-2.404v2.576zm-8.7-3.197h4.393v.852h-4.393v-.852zm.11 3.117h4.978v.872h-6.198v-7.015h6.027v.872h-4.807v5.27zm-13.457.872v-7.015h1l3.832 5.3h-.537l3.783-5.3h1l.012 7.015h-1.171l-.012-5.502h.28l-3.367 4.65h-.561l-3.392-4.65h.305v5.502h-1.172zm73.464-15.071c-.48.166-.947.293-1.403.38-.447.08-.882.12-1.305.12-1.042 0-1.851-.207-2.428-.62-.57-.415-.855-1.006-.855-1.774v-2.275h1.196v2.164c0 .521.195.922.586 1.203.39.28.935.42 1.635.42.415 0 .838-.043 1.269-.13a7.135 7.135 0 001.281-.38l.024.892zm-.207 2.845v-7.014h1.208v7.014h-1.208zm-15.407 0v-7.014h1.208v5.411l5.051-5.411h1.123v7.014h-1.196v-5.4l-5.063 5.4h-1.123zm-9.603 0v-7.014h3.672c.928 0 1.656.154 2.185.46.528.308.793.756.793 1.344 0 .574-.253 1.015-.757 1.322-.504.301-1.167.451-1.989.451l.22-.3c.952 0 1.68.157 2.184.47.512.308.769.759.769 1.353 0 .602-.269 1.073-.806 1.413-.528.334-1.317.501-2.367.501h-3.904zm1.208-.791h2.672c.651 0 1.139-.097 1.464-.29.334-.201.5-.505.5-.913 0-.407-.166-.704-.5-.892-.325-.187-.813-.28-1.464-.28h-2.672v2.375zm0-3.137h2.38c.593 0 1.044-.097 1.353-.29a.937.937 0 00.476-.852c0-.38-.158-.668-.476-.862-.309-.194-.76-.29-1.354-.29h-2.38v2.294zm-8.7-.06h4.392v.852h-4.392v-.852zm.11 3.117h4.978v.871h-6.2v-7.014h6.028v.872H88.37v5.27zm-5.592-6.143H84v7.014h-1.22v-7.014zm-4.905 7.014h-1.22v-7.014h1.22v7.014zm5.014-3.126h-5.136v-.872h5.136v.872zm-15.502-3.888h1.403l2.233 2.565 2.233-2.565h1.427l-2.891 3.367 3.123 3.647h-1.44l-2.452-2.795-2.44 2.795H67.18l3.111-3.607-2.904-3.407zm-9.597 7.014l3.867-7.014h1.208l3.88 7.014h-1.28l-3.454-6.453h.488l-3.453 6.453H57.79zm1.647-1.753l.33-.802h4.806l.354.802h-5.49zm-5.085 1.282v-5.671h-3.745l-.062 1.473a18.99 18.99 0 01-.122 1.423 8.249 8.249 0 01-.22 1.232 2.55 2.55 0 01-.414.892c-.17.234-.39.378-.659.43l-1.318-.18c.318.02.578-.066.781-.26.212-.2.374-.478.488-.832a6.25 6.25 0 00.269-1.252c.057-.481.097-.996.122-1.543l.085-2.255h6.003v6.543h-1.208zm-6.845 2.005l.013-2.405h9.297v2.405h-1.135v-1.534h-7.028l-.012 1.534h-1.135zm67.316 17.53a.696.696 0 00.376.038c.116-.025.219-.111.31-.258l.134-.208.039-.043 1.008-1.89h.389l-1.22 2.222a1.11 1.11 0 01-.322.386.738.738 0 01-.392.139.898.898 0 01-.424-.078l.102-.308zm.847-.127l-1.204-2.234h.42l1 1.925-.216.309zm-4.617.466v-2.7h.322l1.232 2.04h-.173l1.217-2.04h.321l.004 2.7h-.376l-.004-2.117h.09l-1.083 1.79h-.18l-1.091-1.79h.098v2.117h-.377zm-2.089.031a1.62 1.62 0 01-.585-.104 1.358 1.358 0 01-.878-1.277 1.337 1.337 0 01.416-.983 1.38 1.38 0 01.462-.293c.178-.07.373-.105.585-.105.209 0 .401.035.577.105.178.066.332.163.463.289.133.123.235.269.306.436.073.167.11.35.11.551 0 .201-.037.385-.11.552a1.3 1.3 0 01-.306.44 1.42 1.42 0 01-.463.289c-.176.067-.368.1-.577.1zm0-.343c.152 0 .292-.026.42-.077a.987.987 0 00.561-.548 1.02 1.02 0 00.082-.413 1.02 1.02 0 00-.643-.96 1.115 1.115 0 00-.42-.077 1.16 1.16 0 00-.428.077c-.128.051-.24.125-.337.22a1.003 1.003 0 00-.228.328 1.072 1.072 0 00-.078.412c0 .15.026.287.078.413.055.126.131.237.228.332a1.069 1.069 0 00.765.293zm-2.565.131v-2.183h-1.204l-.02.567c-.008.19-.021.373-.039.548a3.686 3.686 0 01-.071.474 1.08 1.08 0 01-.133.343.34.34 0 01-.212.166l-.424-.07a.287.287 0 00.251-.1.78.78 0 00.157-.32c.039-.138.068-.3.087-.482.018-.185.031-.383.039-.594l.027-.868h1.93v2.52h-.388zm-2.201.772l.004-.926h2.99v.926h-.365v-.59h-2.26l-.004.59h-.365zm-.551-.591l-.859-1.33.33-.193.988 1.523h-.459zm-1.408-1.188v-.339h.804v.34h-.804zm.902-.12l-.365-.053.844-1.339h.42l-.899 1.393zm-2.464 1.308h-.459l.985-1.523.334.193-.86 1.33zm1.68 0h-.385v-2.7h.385v2.7zm-.267-1.188h-.808v-.339h.808v.34zm-.903-.12l-.902-1.392h.42l.839 1.339-.357.054z" fill="#000"/><path d="M97.348 52.071l1.243-2.7h.389l1.247 2.7h-.412l-1.11-2.484h.157l-1.11 2.484h-.404zm.53-.675l.105-.308h1.546l.114.308h-1.766z" fill="#000"/><path d="M96.917 52.071l-.996-1.33.318-.193 1.126 1.523h-.448zm-1.847 0v-2.7h.384v2.7h-.384zm.266-1.188v-.339h.89v.34h-.89zm.938-.12l-.361-.053.985-1.339h.42l-1.044 1.393zm-4.51-.227h1.412v.328h-1.412v-.328zm.035 1.2h1.6v.335h-1.992v-2.7h1.938v.336h-1.546v2.029zm-3.084-1.423c.324 0 .574.072.75.216.174.141.262.353.262.636 0 .298-.095.525-.286.679-.189.152-.454.227-.797.227H87.51v-2.7h.389v.942h.816zm-.087 1.454c.228 0 .402-.05.522-.15.123-.101.185-.249.185-.444 0-.19-.06-.33-.18-.42-.121-.09-.296-.136-.526-.136h-.73v1.15h.73zm1.534.304v-2.7h.389v2.7h-.389zm-3.9-2.7h.392v2.7h-.392v-2.7zm-1.578 2.7h-.392v-2.7h.392v2.7zm1.613-1.203h-1.652v-.336h1.652v.336zm-5.227 1.203v-2.7h2.366v2.7h-.385v-2.464l.094.1H81.36l.099-.1v2.464h-.389zm-2.663-.339a.698.698 0 00.377.038c.115-.025.218-.111.31-.258l.133-.208.04-.043 1.007-1.89h.389l-1.22 2.222c-.092.17-.2.298-.322.386a.739.739 0 01-.392.139.897.897 0 01-.424-.078l.102-.308zm.847-.127L78.05 49.37h.42l1 1.925-.216.309z" fill="#000"/><path d="M76.731 52.071v-2.464l.098.1h-1.036v-.336h2.264v.336h-1.036l.094-.1v2.464h-.384zm-2.118.031c-.21 0-.403-.033-.58-.1a1.43 1.43 0 01-.46-.29 1.36 1.36 0 01-.412-.991 1.323 1.323 0 01.416-.987c.13-.126.284-.223.46-.29.177-.069.37-.104.58-.104.212 0 .406.036.584.108.18.07.334.174.46.313l-.256.243a1 1 0 00-.353-.24 1.188 1.188 0 00-.851-.004 1.04 1.04 0 00-.341.217.991.991 0 00-.306.744c0 .15.026.288.078.417a1.002 1.002 0 00.569.544c.133.051.277.077.431.077.15 0 .29-.026.42-.077a1.02 1.02 0 00.353-.247l.255.243a1.219 1.219 0 01-.459.316 1.554 1.554 0 01-.588.108zm-3.318 0c-.209 0-.404-.034-.584-.104a1.416 1.416 0 01-.463-.29 1.35 1.35 0 01-.416-.987 1.322 1.322 0 01.416-.984c.13-.125.285-.223.463-.292a1.58 1.58 0 01.584-.105c.21 0 .402.035.577.105.178.066.332.163.463.289.133.123.235.269.306.436.073.167.11.35.11.551a1.359 1.359 0 01-.416.992c-.13.123-.285.22-.463.289-.175.067-.368.1-.577.1zm0-.343c.152 0 .292-.026.42-.077a.994.994 0 00.561-.548c.055-.126.083-.264.083-.413a1.022 1.022 0 00-.644-.96 1.116 1.116 0 00-.42-.077c-.154 0-.297.026-.427.077a1.018 1.018 0 00-.338.22 1.003 1.003 0 00-.227.328 1.066 1.066 0 00-.079.412c0 .15.026.287.079.413.055.126.13.237.227.332a1.074 1.074 0 00.765.293zm-2.565.131v-2.183h-1.204l-.02.567c-.008.19-.02.373-.039.548a4.06 4.06 0 01-.07.474 1.075 1.075 0 01-.134.343.34.34 0 01-.212.166l-.424-.07a.288.288 0 00.252-.1.787.787 0 00.156-.32c.04-.138.069-.3.087-.482.018-.185.031-.383.04-.594l.026-.868h1.93v2.52h-.388zm-2.2.772l.003-.926h2.99v.926h-.365v-.59h-2.26l-.004.59h-.365zm-3.37-2.349c.325 0 .575.072.75.216.175.141.263.353.263.636 0 .298-.096.525-.287.679-.188.152-.454.227-.796.227h-1.134v-2.7h.388v.942h.816zm-.086 1.454c.228 0 .402-.05.522-.15.123-.101.184-.249.184-.444 0-.19-.06-.33-.18-.42-.12-.09-.296-.136-.526-.136h-.73v1.15h.73zm1.534.304v-2.7h.389v2.7h-.389zm-3.981-.181v-2.183h-1.204l-.02.567c-.008.19-.02.373-.039.548a4.06 4.06 0 01-.07.474 1.078 1.078 0 01-.134.343.34.34 0 01-.212.166l-.424-.07a.288.288 0 00.252-.1.788.788 0 00.156-.32c.04-.138.069-.3.087-.482.018-.185.031-.383.039-.594l.028-.868h1.93v2.52h-.389zm-2.2.772l.003-.926h2.99v.926h-.365v-.59h-2.26l-.004.59h-.365zm-.838-3.291h.392v2.7h-.392v-2.7zm-1.578 2.7h-.392v-2.7h.392v2.7zm1.613-1.203h-1.652v-.336h1.652v.336zm-4.257-.332h1.413v.328h-1.413v-.328zm.036 1.2h1.6v.335H53.01v-2.7h1.938v.336h-1.545v2.029zm-3.155.335v-2.7h1.07c.242 0 .447.038.617.112.17.075.3.183.392.324.092.142.137.31.137.506a.909.909 0 01-.137.505.901.901 0 01-.392.324 1.54 1.54 0 01-.616.112h-.855l.176-.182v1h-.392zm.392-.96l-.176-.193h.843c.251 0 .44-.053.569-.158a.542.542 0 00.196-.447.542.542 0 00-.196-.448c-.128-.105-.318-.158-.569-.158h-.843l.176-.193v1.597zm-2.195.96v-2.464l.098.1h-1.036v-.336h2.264v.336h-1.036l.094-.1v2.464h-.384z" fill="#000"/></g><defs><clipPath id="clip0_133_6645"><path fill="#fff" d="M0 0h121.935v54H0z"/></clipPath></defs></svg>