<svg width="208" height="198" fill="none" xmlns="http://www.w3.org/2000/svg"><path d="M23 180.237c-14.211 13.92-23 33.146-23 54.386 0 42.474 35.15 76.905 78.513 76.905 21.679 0 41.307-8.609 55.518-22.524L23 180.246v-.009z" fill="#FF9B07"/><path d="M207.005 0L23 180.237c14.206-13.916 33.834-22.52 55.513-22.52 43.362 0 78.513 34.431 78.513 76.906 0 21.234-8.789 40.461-22.995 54.381l72.983-71.489c-28.417-27.835-45.99-66.283-45.99-108.758 0-42.474 17.573-80.922 45.985-108.752L207.005 0z" fill="#FF9B07"/><path d="M78.513 157.719c-21.679 0-41.302 8.604-55.513 22.519L134.03 289c14.206-13.915 22.995-33.141 22.995-54.381 0-42.474-35.151-76.905-78.513-76.905v.005z" fill="#FF9B07"/></svg>