<svg width="177" height="288" viewBox="0 0 177 288" fill="none" xmlns="http://www.w3.org/2000/svg">
<path d="M198.946 143C214.426 127.848 224 106.9 224 83.77C224 37.5043 185.71 0 138.476 0C114.856 0 92.9748 10.3374 77.5 25.5L198.946 143Z" fill="#51CEF1"/>
<path d="M141.908 161.895C95.371 161.895 57.6463 124.942 57.6463 79.3579C57.6463 56.5683 67.0736 35.9393 82.32 21L0.60498 101.042C31.103 130.915 49.9628 172.178 49.9628 217.763C49.9628 263.347 31.103 304.61 0.60498 334.484L201.481 137.721C186.235 152.655 165.169 161.889 141.903 161.889L141.908 161.895Z" fill="#51CEF1"/>
<path d="M138.525 167.995C162.141 167.995 183.519 158.623 199 143.466L78.045 25C62.5692 40.162 53 61.1037 53 84.2331C53 130.497 91.2925 168 138.53 168L138.525 167.995Z" fill="#51CEF1"/>
</svg>
