<svg width="122" height="54" viewBox="0 0 122 54" fill="none" xmlns="http://www.w3.org/2000/svg">
<g clip-path="url(#clip0_133_6645)">
<path d="M3.05532 36.651C1.16752 38.4904 0 41.0311 0 43.8379C0 49.4507 4.66944 54.0006 10.4297 54.0006C13.3095 54.0006 15.9169 52.863 17.8047 51.0241L3.05532 36.6522V36.651Z" fill="#FF9B07"/>
<path d="M27.4986 12.8333L3.05532 36.651C4.94247 34.8121 7.5499 33.6751 10.4297 33.6751C16.19 33.6751 20.8594 38.225 20.8594 43.8379C20.8594 46.644 19.6919 49.1847 17.8047 51.0241L27.4999 41.5771C23.7249 37.8988 21.3905 32.8181 21.3905 27.2052C21.3905 21.5924 23.7249 16.5116 27.4992 12.8339L27.4986 12.8333Z" fill="#FF9B07"/>
<path d="M10.4297 33.6751C7.5499 33.6751 4.94312 34.8121 3.05532 36.651L17.8047 51.0235C19.6919 49.1847 20.8594 46.644 20.8594 43.8372C20.8594 38.2244 16.19 33.6745 10.4297 33.6745V33.6751Z" fill="#FF9B07"/>
<path d="M81.8621 17.3484C83.7499 15.5102 84.9175 12.9689 84.9175 10.1628C84.9175 4.54995 80.248 1.52588e-05 74.4878 1.52588e-05C71.6073 1.52588e-05 68.9999 1.13766 67.1127 2.97714L81.8621 17.3484Z" fill="#51CEF1"/>
<path d="M74.4881 20.3249C68.7279 20.3249 64.0584 15.775 64.0584 10.1621C64.0584 7.35604 65.2253 4.81599 67.1125 2.9765L56.998 12.8321C60.773 16.5104 63.1074 21.5911 63.1074 27.204C63.1074 32.8168 60.773 37.8976 56.998 41.5759L81.8619 17.3484C79.9747 19.1873 77.3673 20.3243 74.4875 20.3243L74.4881 20.3249Z" fill="#51CEF1"/>
<path d="M74.4881 20.3249C77.3679 20.3249 79.9747 19.1879 81.8625 17.3491L67.1131 2.9765C65.226 4.81599 64.0591 7.35668 64.0591 10.1628C64.0591 15.7756 68.7285 20.3255 74.4888 20.3255L74.4881 20.3249Z" fill="#51CEF1"/>
<path opacity="0.45" d="M27.4986 12.836L27.5025 12.832C27.5025 12.832 27.5005 12.834 27.4986 12.836Z" fill="black"/>
<path d="M27.4997 41.5771C29.7235 43.7441 32.4493 45.4182 35.4897 46.433L29.0033 40.1126L27.4997 41.5777V41.5771Z" fill="#2A8CE3"/>
<path opacity="0.45" d="M56.9983 12.8327L29.0025 40.112L56.9983 12.8327Z" fill="black"/>
<path d="M56.998 12.8327C53.2231 9.15437 48.0089 6.87971 42.2486 6.87971C36.4884 6.87971 31.2742 9.15437 27.4999 12.8321L27.4986 12.8333C23.7243 16.5117 21.3899 21.5924 21.3899 27.2046C21.3899 32.8168 23.7243 37.8988 27.4992 41.5765L29.0028 40.1114L56.9987 12.8321L56.998 12.8327Z" fill="#FF9B07"/>
<path d="M56.998 12.8327C53.2231 9.15437 48.0089 6.87971 42.2486 6.87971C36.4884 6.87971 31.2742 9.15437 27.4999 12.8321L27.4986 12.8333C23.7243 16.5117 21.3899 21.5924 21.3899 27.2046C21.3899 32.8168 23.7243 37.8988 27.4992 41.5765L29.0028 40.1114L56.9987 12.8321L56.998 12.8327Z" fill="#FF385D"/>
<path d="M56.9983 12.8326L29.0025 40.112L35.4888 46.4323C37.6094 47.1399 39.8814 47.5294 42.2483 47.5294C48.0079 47.5294 53.2227 45.2548 56.9977 41.5764H56.9983C60.7726 37.8975 63.1077 32.8167 63.1077 27.2039C63.1077 21.5911 60.7726 16.5097 56.9983 12.832V12.8326Z" fill="#51CEF1"/>
<path d="M56.9983 12.8326L29.0025 40.112L35.4888 46.4323C37.6094 47.1399 39.8814 47.5294 42.2483 47.5294C48.0079 47.5294 53.2227 45.2548 56.9977 41.5764H56.9983C60.7726 37.8975 63.1077 32.8167 63.1077 27.2039C63.1077 21.5911 60.7726 16.5097 56.9983 12.832V12.8326Z" fill="#2A8CE3"/>
<path d="M100.235 40.3241C101.244 40.3241 102.02 40.5111 102.565 40.8852C103.11 41.2526 103.383 41.8038 103.383 42.5386C103.383 43.3135 103.086 43.9014 102.492 44.3022C101.906 44.6964 101.081 44.8935 100.015 44.8935H96.4891V37.8791H97.697V40.3241H100.235ZM99.9664 44.1018C100.674 44.1018 101.215 43.9716 101.589 43.711C101.972 43.4505 102.163 43.0664 102.163 42.5587C102.163 42.0643 101.976 41.7002 101.601 41.4664C101.227 41.2326 100.682 41.1157 99.9664 41.1157H97.697V44.1018H99.9664Z" fill="black"/>
<path d="M85.9588 44.9736C85.8368 44.9736 85.7148 44.9669 85.5928 44.9536C85.4708 44.9402 85.3366 44.9202 85.1901 44.8935L85.2755 44.0016C85.4057 44.0283 85.5358 44.0417 85.666 44.0417C86.0239 44.0417 86.3086 43.9248 86.5201 43.691C86.7316 43.4572 86.8861 43.1031 86.9837 42.6288C87.0895 42.1545 87.1586 41.5566 87.1912 40.8351L87.3254 37.8791H93.3406V44.8935H92.1449V38.4903L92.4377 38.7508H88.1063L88.3747 38.4803L88.2771 40.8051C88.2527 41.4998 88.1957 42.1077 88.1063 42.6288C88.0168 43.1499 87.8826 43.5841 87.7036 43.9315C87.5247 44.2789 87.2928 44.5394 87.0081 44.7131C86.7316 44.8868 86.3818 44.9736 85.9588 44.9736Z" fill="black"/>
<path d="M78.8694 40.9053H83.2619V41.757H78.8694V40.9053ZM78.9792 44.0217H83.9574V44.8935H77.7591V37.8791H83.7865V38.7508H78.9792V44.0217Z" fill="black"/>
<path d="M68.3464 44.8935V37.8791H74.7887V38.7308H69.5543V40.7349H72.2142C73.231 40.7349 74.0037 40.9086 74.5325 41.256C75.0612 41.6034 75.3255 42.1077 75.3255 42.7691C75.3255 43.4505 75.0368 43.9749 74.4593 44.3423C73.8899 44.7097 73.0724 44.8935 72.0068 44.8935H68.3464ZM69.5543 44.1018H71.958C72.6657 44.1018 73.1984 43.9916 73.5564 43.7712C73.9224 43.5507 74.1054 43.2234 74.1054 42.7891C74.1054 41.9474 73.3896 41.5265 71.958 41.5265H69.5543V44.1018Z" fill="black"/>
<path d="M60.8542 40.9053H65.2467V41.757H60.8542V40.9053ZM60.964 44.0217H65.9422V44.8935H59.7439V37.8791H65.7713V38.7508H60.964V44.0217Z" fill="black"/>
<path d="M47.5073 44.8935V37.8791H48.5078L52.3391 43.1799H51.8022L55.5846 37.8791H56.5851L56.5973 44.8935H55.426L55.4138 39.3922H55.6944L52.3269 44.0417H51.7656L48.3736 39.3922H48.6787V44.8935H47.5073Z" fill="black"/>
<path d="M120.971 29.8225C120.491 29.9895 120.024 30.1165 119.568 30.2033C119.121 30.2835 118.686 30.3235 118.263 30.3235C117.221 30.3235 116.412 30.1165 115.835 29.7023C115.265 29.2881 114.98 28.6969 114.98 27.9286V25.654H116.176V27.8184C116.176 28.3395 116.371 28.7403 116.762 29.0209C117.152 29.3014 117.697 29.4417 118.397 29.4417C118.812 29.4417 119.235 29.3983 119.666 29.3115C120.105 29.2246 120.532 29.0977 120.947 28.9307L120.971 29.8225ZM120.764 32.6684V25.654H121.972V32.6684H120.764Z" fill="black"/>
<path d="M105.357 32.6684V25.654H106.565V31.0651L111.616 25.654H112.739V32.6684H111.543V27.2673L106.48 32.6684H105.357Z" fill="black"/>
<path d="M95.7539 32.6684V25.654H99.4265C100.354 25.654 101.082 25.8076 101.611 26.1149C102.139 26.4222 102.404 26.8698 102.404 27.4577C102.404 28.0322 102.151 28.4731 101.647 28.7804C101.143 29.081 100.48 29.2313 99.6583 29.2313L99.8779 28.9307C100.83 28.9307 101.558 29.0877 102.062 29.4017C102.574 29.709 102.831 30.1599 102.831 30.7544C102.831 31.3557 102.562 31.8266 102.025 32.1673C101.497 32.5013 100.708 32.6684 99.6583 32.6684H95.7539ZM96.9618 31.8767H99.6339C100.285 31.8767 100.773 31.7799 101.098 31.5861C101.432 31.3857 101.598 31.0818 101.598 30.6743C101.598 30.2668 101.432 29.9695 101.098 29.7824C100.773 29.5954 100.285 29.5019 99.6339 29.5019H96.9618V31.8767ZM96.9618 28.7403H99.3411C99.9349 28.7403 100.386 28.6434 100.695 28.4497C101.013 28.256 101.171 27.9721 101.171 27.598C101.171 27.2172 101.013 26.9299 100.695 26.7362C100.386 26.5425 99.9349 26.4456 99.3411 26.4456H96.9618V28.7403Z" fill="black"/>
<path d="M88.2617 28.6802H92.6542V29.5319H88.2617V28.6802ZM88.3715 31.7966H93.3496V32.6684H87.1514V25.654H93.1788V26.5258H88.3715V31.7966Z" fill="black"/>
<path d="M82.7795 25.654H83.9996V32.6684H82.7795V25.654ZM77.8746 32.6684H76.6544V25.654H77.8746V32.6684ZM82.8893 29.5419H77.7526V28.6702H82.8893V29.5419Z" fill="black"/>
<path d="M67.3871 25.654H68.7903L71.0231 28.2192L73.256 25.654H74.6835L71.7918 29.0209L74.9154 32.6684H73.4756L71.0231 29.8726L68.5829 32.6684H67.1797L70.2911 29.061L67.3871 25.654Z" fill="black"/>
<path d="M57.7895 32.6684L61.6573 25.654H62.8652L66.7452 32.6684H65.4641L62.0111 26.2151H62.4992L59.0462 32.6684H57.7895ZM59.4366 30.9148L59.7661 30.1131H64.5734L64.9272 30.9148H59.4366Z" fill="black"/>
<path d="M54.3523 32.1974V26.5258H50.6065L50.5455 27.9988C50.5211 28.4931 50.4804 28.9674 50.4235 29.4217C50.3747 29.876 50.3014 30.2868 50.2038 30.6542C50.1062 31.015 49.9679 31.3122 49.789 31.5461C49.6182 31.7799 49.3985 31.9235 49.1301 31.9769L47.8124 31.7966C48.1296 31.8166 48.3899 31.7298 48.5933 31.536C48.8047 31.3356 48.9674 31.0584 49.0813 30.7043C49.2033 30.3436 49.2928 29.9261 49.3497 29.4518C49.4067 28.9708 49.4474 28.4564 49.4718 27.9086L49.5572 25.654H55.5602V32.1974H54.3523ZM47.5073 34.2015L47.5195 31.7966H56.817V34.2015H55.6822V32.6684H48.6543L48.6421 34.2015H47.5073Z" fill="black"/>
<path d="M114.823 51.732C114.959 51.7808 115.084 51.7937 115.199 51.7705C115.315 51.7448 115.418 51.6587 115.509 51.5121L115.643 51.3038L115.682 51.2614L116.69 49.3714H117.079L115.859 51.5931C115.767 51.7628 115.66 51.8914 115.537 51.9788C115.417 52.0637 115.286 52.11 115.145 52.1177C115.006 52.128 114.865 52.1022 114.721 52.0405L114.823 51.732ZM115.67 51.6047L114.466 49.3714H114.886L115.886 51.2961L115.67 51.6047Z" fill="black"/>
<path d="M111.053 52.0714V49.3714H111.375L112.607 51.4118H112.434L113.651 49.3714H113.972L113.976 52.0714H113.6L113.596 49.9538H113.686L112.603 51.7436H112.423L111.332 49.9538H111.43V52.0714H111.053Z" fill="black"/>
<path d="M108.964 52.1023C108.755 52.1023 108.56 52.0675 108.379 51.9981C108.202 51.9287 108.047 51.8323 107.917 51.7088C107.786 51.5828 107.684 51.4363 107.611 51.2691C107.537 51.102 107.501 50.9194 107.501 50.7214C107.501 50.5234 107.537 50.3408 107.611 50.1737C107.684 50.0065 107.786 49.8613 107.917 49.7378C108.047 49.6118 108.202 49.5141 108.379 49.4447C108.557 49.3753 108.752 49.3405 108.964 49.3405C109.173 49.3405 109.365 49.3753 109.541 49.4447C109.719 49.5115 109.873 49.608 110.004 49.734C110.137 49.8574 110.239 50.0027 110.31 50.1698C110.383 50.337 110.42 50.5208 110.42 50.7214C110.42 50.922 110.383 51.1058 110.31 51.273C110.239 51.4401 110.137 51.5867 110.004 51.7127C109.873 51.8361 109.719 51.9325 109.541 52.002C109.365 52.0688 109.173 52.1023 108.964 52.1023ZM108.964 51.759C109.116 51.759 109.256 51.7333 109.384 51.6818C109.515 51.6304 109.627 51.5584 109.721 51.4658C109.818 51.3707 109.893 51.2601 109.945 51.1341C110 51.0081 110.027 50.8705 110.027 50.7214C110.027 50.5723 110 50.4347 109.945 50.3087C109.893 50.1827 109.818 50.0734 109.721 49.9808C109.627 49.8857 109.515 49.8124 109.384 49.761C109.256 49.7095 109.116 49.6838 108.964 49.6838C108.81 49.6838 108.667 49.7095 108.536 49.761C108.408 49.8124 108.296 49.8857 108.199 49.9808C108.102 50.0734 108.026 50.1827 107.971 50.3087C107.919 50.4347 107.893 50.5723 107.893 50.7214C107.893 50.8705 107.919 51.0081 107.971 51.1341C108.026 51.2601 108.102 51.3707 108.199 51.4658C108.296 51.5584 108.408 51.6304 108.536 51.6818C108.667 51.7333 108.81 51.759 108.964 51.759Z" fill="black"/>
<path d="M106.399 51.8901V49.707H105.195L105.175 50.274C105.167 50.4643 105.154 50.6468 105.136 50.8217C105.12 50.9966 105.097 51.1547 105.065 51.2961C105.034 51.435 104.989 51.5494 104.932 51.6394C104.877 51.7294 104.806 51.7847 104.72 51.8053L104.296 51.7358C104.398 51.7436 104.482 51.7101 104.547 51.6356C104.615 51.5584 104.668 51.4517 104.704 51.3154C104.743 51.1766 104.772 51.0158 104.791 50.8333C104.809 50.6481 104.822 50.4501 104.83 50.2393L104.857 49.3714H106.787V51.8901H106.399ZM104.198 52.6616L104.202 51.7358H107.192V52.6616H106.827V52.0714H104.567L104.563 52.6616H104.198Z" fill="black"/>
<path d="M103.647 52.0714L102.788 50.7407L103.118 50.5478L104.106 52.0714H103.647ZM102.239 50.8834V50.544H103.043V50.8834H102.239ZM103.141 50.7638L102.776 50.7098L103.62 49.3714H104.04L103.141 50.7638ZM100.677 52.0714H100.218L101.203 50.5478L101.537 50.7407L100.677 52.0714ZM102.357 52.0714H101.972V49.3714H102.357V52.0714ZM102.09 50.8834H101.282V50.544H102.09V50.8834ZM101.187 50.7638L100.285 49.3714H100.705L101.544 50.7098L101.187 50.7638Z" fill="black"/>
<path d="M97.3478 52.0714L98.5915 49.3714H98.9798L100.227 52.0714H99.8155L98.7052 49.5874H98.8621L97.7519 52.0714H97.3478ZM97.8774 51.3964L97.9834 51.0878H99.5291L99.6429 51.3964H97.8774Z" fill="black"/>
<path d="M96.9173 52.0714L95.9208 50.7407L96.2386 50.5478L97.3645 52.0714H96.9173ZM95.0695 52.0714V49.3714H95.4539V52.0714H95.0695ZM95.3362 50.8834V50.544H96.2268V50.8834H95.3362ZM96.2739 50.7638L95.913 50.7098L96.8977 49.3714H97.3175L96.2739 50.7638Z" fill="black"/>
<path d="M91.7638 50.5363H93.1762V50.8641H91.7638V50.5363ZM91.7991 51.7358H93.3998V52.0714H91.4068V49.3714H93.3449V49.707H91.7991V51.7358Z" fill="black"/>
<path d="M88.7149 50.3126C89.0392 50.3126 89.2889 50.3846 89.4642 50.5286C89.6394 50.67 89.727 50.8821 89.727 51.165C89.727 51.4633 89.6316 51.6896 89.4406 51.8438C89.2523 51.9956 88.9869 52.0714 88.6442 52.0714H87.5104V49.3714H87.8988V50.3126H88.7149ZM88.6285 51.7667C88.8561 51.7667 89.03 51.7166 89.1503 51.6163C89.2733 51.516 89.3347 51.3681 89.3347 51.1727C89.3347 50.9824 89.2746 50.8423 89.1543 50.7523C89.0339 50.6623 88.8587 50.6173 88.6285 50.6173H87.8988V51.7667H88.6285ZM90.1625 52.0714V49.3714H90.5509V52.0714H90.1625Z" fill="black"/>
<path d="M86.2616 49.3714H86.654V52.0714H86.2616V49.3714ZM84.6845 52.0714H84.2922V49.3714H84.6845V52.0714ZM86.2969 50.868H84.6453V50.5324H86.2969V50.868Z" fill="black"/>
<path d="M81.0701 52.0714V49.3714H83.4358V52.0714H83.0513V49.6067L83.1455 49.707H81.3604L81.4585 49.6067V52.0714H81.0701Z" fill="black"/>
<path d="M78.407 51.732C78.543 51.7808 78.6685 51.7937 78.7836 51.7705C78.8987 51.7448 79.002 51.6587 79.0935 51.5121L79.2269 51.3038L79.2661 51.2614L80.2744 49.3714H80.6628L79.4427 51.5931C79.3511 51.7628 79.2439 51.8914 79.121 51.9788C79.0007 52.0637 78.8699 52.11 78.7287 52.1177C78.59 52.128 78.4488 52.1022 78.305 52.0405L78.407 51.732ZM79.2544 51.6047L78.0499 49.3714H78.4697L79.4701 51.2961L79.2544 51.6047Z" fill="black"/>
<path d="M76.731 52.0714V49.6067L76.8291 49.707H75.7934V49.3714H78.057V49.707H77.0213L77.1155 49.6067V52.0714H76.731Z" fill="black"/>
<path d="M74.6129 52.1023C74.4036 52.1023 74.2101 52.0688 74.0322 52.002C73.857 51.9325 73.704 51.8361 73.5732 51.7127C73.4451 51.5867 73.3444 51.4401 73.2711 51.273C73.1979 51.1058 73.1613 50.922 73.1613 50.7214C73.1613 50.5208 73.1979 50.337 73.2711 50.1698C73.3444 50.0027 73.4464 49.8574 73.5772 49.734C73.7079 49.608 73.8609 49.5115 74.0362 49.4447C74.214 49.3753 74.4076 49.3405 74.6168 49.3405C74.8286 49.3405 75.0235 49.3765 75.2013 49.4485C75.3818 49.518 75.5348 49.6221 75.6604 49.761L75.4054 50.004C75.3007 49.896 75.183 49.8163 75.0523 49.7648C74.9215 49.7108 74.7816 49.6838 74.6325 49.6838C74.4782 49.6838 74.3343 49.7095 74.2009 49.761C74.0702 49.8124 73.9564 49.8844 73.8596 49.977C73.7628 50.0695 73.687 50.1801 73.6321 50.3087C73.5798 50.4347 73.5536 50.5723 73.5536 50.7214C73.5536 50.8705 73.5798 51.0094 73.6321 51.138C73.687 51.264 73.7628 51.3733 73.8596 51.4658C73.9564 51.5584 74.0702 51.6304 74.2009 51.6818C74.3343 51.7333 74.4782 51.759 74.6325 51.759C74.7816 51.759 74.9215 51.7333 75.0523 51.6818C75.183 51.6278 75.3007 51.5455 75.4054 51.435L75.6604 51.678C75.5348 51.8168 75.3818 51.9223 75.2013 51.9943C75.0235 52.0663 74.8273 52.1023 74.6129 52.1023Z" fill="black"/>
<path d="M71.2953 52.1023C71.0861 52.1023 70.8912 52.0675 70.7107 51.9981C70.5329 51.9287 70.3786 51.8323 70.2478 51.7088C70.117 51.5828 70.015 51.4363 69.9418 51.2691C69.8686 51.102 69.8319 50.9194 69.8319 50.7214C69.8319 50.5234 69.8686 50.3408 69.9418 50.1737C70.015 50.0065 70.117 49.8613 70.2478 49.7378C70.3786 49.6118 70.5329 49.5141 70.7107 49.4447C70.8886 49.3753 71.0834 49.3405 71.2953 49.3405C71.5045 49.3405 71.6968 49.3753 71.872 49.4447C72.0498 49.5115 72.2042 49.608 72.3349 49.734C72.4683 49.8574 72.5703 50.0027 72.6409 50.1698C72.7142 50.337 72.7508 50.5208 72.7508 50.7214C72.7508 50.922 72.7142 51.1058 72.6409 51.273C72.5703 51.4401 72.4683 51.5867 72.3349 51.7127C72.2042 51.8361 72.0498 51.9325 71.872 52.002C71.6968 52.0688 71.5045 52.1023 71.2953 52.1023ZM71.2953 51.759C71.447 51.759 71.5869 51.7333 71.7151 51.6818C71.8458 51.6304 71.9583 51.5584 72.0525 51.4658C72.1492 51.3707 72.2238 51.2601 72.2761 51.1341C72.331 51.0081 72.3585 50.8705 72.3585 50.7214C72.3585 50.5723 72.331 50.4347 72.2761 50.3087C72.2238 50.1827 72.1492 50.0734 72.0525 49.9808C71.9583 49.8857 71.8458 49.8124 71.7151 49.761C71.5869 49.7095 71.447 49.6838 71.2953 49.6838C71.141 49.6838 70.9984 49.7095 70.8677 49.761C70.7395 49.8124 70.627 49.8857 70.5303 49.9808C70.4335 50.0734 70.3576 50.1827 70.3027 50.3087C70.2504 50.4347 70.2243 50.5723 70.2243 50.7214C70.2243 50.8705 70.2504 51.0081 70.3027 51.1341C70.3576 51.2601 70.4335 51.3707 70.5303 51.4658C70.627 51.5584 70.7395 51.6304 70.8677 51.6818C70.9984 51.7333 71.141 51.759 71.2953 51.759Z" fill="black"/>
<path d="M68.7303 51.8901V49.707H67.5259L67.5063 50.274C67.4984 50.4643 67.4854 50.6468 67.4671 50.8217C67.4514 50.9966 67.4278 51.1547 67.3964 51.2961C67.3651 51.435 67.3206 51.5494 67.2631 51.6394C67.2081 51.7294 67.1375 51.7847 67.0512 51.8053L66.6275 51.7358C66.7295 51.7436 66.8132 51.7101 66.8786 51.6356C66.9466 51.5584 66.9989 51.4517 67.0355 51.3154C67.0747 51.1766 67.1035 51.0158 67.1218 50.8333C67.1401 50.6481 67.1532 50.4501 67.1611 50.2393L67.1885 49.3714H69.1187V51.8901H68.7303ZM66.5294 52.6616L66.5333 51.7358H69.5228V52.6616H69.158V52.0714H66.8982L66.8943 52.6616H66.5294Z" fill="black"/>
<path d="M63.1605 50.3126C63.4848 50.3126 63.7346 50.3846 63.9098 50.5286C64.0851 50.67 64.1727 50.8821 64.1727 51.165C64.1727 51.4633 64.0772 51.6896 63.8863 51.8438C63.698 51.9956 63.4325 52.0714 63.0899 52.0714H61.9561V49.3714H62.3445V50.3126H63.1605ZM63.0742 51.7667C63.3017 51.7667 63.4757 51.7166 63.596 51.6163C63.7189 51.516 63.7804 51.3681 63.7804 51.1727C63.7804 50.9824 63.7202 50.8423 63.5999 50.7523C63.4796 50.6623 63.3044 50.6173 63.0742 50.6173H62.3445V51.7667H63.0742ZM64.6082 52.0714V49.3714H64.9966V52.0714H64.6082Z" fill="black"/>
<path d="M60.6273 51.8901V49.707H59.4229L59.4032 50.274C59.3954 50.4643 59.3823 50.6468 59.364 50.8217C59.3483 50.9966 59.3248 51.1547 59.2934 51.2961C59.262 51.435 59.2175 51.5494 59.16 51.6394C59.1051 51.7294 59.0345 51.7847 58.9481 51.8053L58.5244 51.7358C58.6264 51.7436 58.7101 51.7101 58.7755 51.6356C58.8435 51.5584 58.8958 51.4517 58.9325 51.3154C58.9717 51.1766 59.0005 51.0158 59.0188 50.8333C59.0371 50.6481 59.0501 50.4501 59.058 50.2393L59.0855 49.3714H61.0157V51.8901H60.6273ZM58.4264 52.6616L58.4303 51.7358H61.4198V52.6616H61.0549V52.0714H58.7951L58.7912 52.6616H58.4264Z" fill="black"/>
<path d="M57.5887 49.3714H57.981V52.0714H57.5887V49.3714ZM56.0115 52.0714H55.6192V49.3714H56.0115V52.0714ZM57.624 50.868H55.9723V50.5324H57.624V50.868Z" fill="black"/>
<path d="M53.3672 50.5363H54.7795V50.8641H53.3672V50.5363ZM53.4025 51.7358H55.0031V52.0714H53.0101V49.3714H54.9482V49.707H53.4025V51.7358Z" fill="black"/>
<path d="M50.2478 52.0714V49.3714H51.3189C51.5595 49.3714 51.7648 49.4087 51.9348 49.4833C52.1048 49.5578 52.2356 49.6658 52.3271 49.8073C52.4187 49.9487 52.4644 50.1171 52.4644 50.3126C52.4644 50.508 52.4187 50.6764 52.3271 50.8178C52.2356 50.9567 52.1048 51.0647 51.9348 51.1418C51.7648 51.2164 51.5595 51.2537 51.3189 51.2537H50.4636L50.6402 51.0724V52.0714H50.2478ZM50.6402 51.111L50.4636 50.9181H51.3071C51.5582 50.9181 51.7478 50.8654 51.876 50.76C52.0067 50.6546 52.0721 50.5054 52.0721 50.3126C52.0721 50.1197 52.0067 49.9706 51.876 49.8651C51.7478 49.7597 51.5582 49.707 51.3071 49.707H50.4636L50.6402 49.5141V51.111Z" fill="black"/>
<path d="M48.445 52.0714V49.6067L48.5431 49.707H47.5073V49.3714H49.771V49.707H48.7353L48.8294 49.6067V52.0714H48.445Z" fill="black"/>
</g>
<defs>
<clipPath id="clip0_133_6645">
<rect width="121.935" height="54" fill="white"/>
</clipPath>
</defs>
</svg>
