<svg width="208" height="198" viewBox="0 0 208 198" fill="none" xmlns="http://www.w3.org/2000/svg">
<path d="M23 180.237C8.78893 194.157 0 213.383 0 234.623C0 277.097 35.1508 311.528 78.5132 311.528C100.192 311.528 119.82 302.919 134.031 289.004L23 180.246V180.237Z" fill="#FF9B07"/>
<path d="M207.005 0L22.9998 180.237C37.2059 166.321 56.8342 157.717 78.5129 157.717C121.875 157.717 157.026 192.148 157.026 234.623C157.026 255.857 148.237 275.084 134.031 289.004L207.014 217.515C178.597 189.68 161.024 151.232 161.024 108.757C161.024 66.2831 178.597 27.8353 207.009 0.00479077L207.005 0Z" fill="#FF9B07"/>
<path d="M78.5129 157.719C56.8342 157.719 37.2108 166.323 22.9998 180.238L134.031 289C148.237 275.085 157.026 255.859 157.026 234.619C157.026 192.145 121.875 157.714 78.5129 157.714V157.719Z" fill="#FF9B07"/>
</svg>
