<svg width="4" height="6" viewBox="0 0 4 6" fill="none" xmlns="http://www.w3.org/2000/svg">
<path d="M3.41485 2.64499L1.29485 0.524992C1.24837 0.478127 1.19307 0.44093 1.13214 0.415546C1.07121 0.390161 1.00586 0.377092 0.939849 0.377092C0.873843 0.377092 0.808491 0.390161 0.747561 0.415546C0.686631 0.44093 0.631331 0.478127 0.584849 0.524992C0.491724 0.618673 0.439453 0.745399 0.439453 0.877491C0.439453 1.00958 0.491724 1.13631 0.584849 1.22999L2.35485 2.99999L0.584849 4.76999C0.491724 4.86367 0.439453 4.9904 0.439453 5.12249C0.439453 5.25458 0.491724 5.38131 0.584849 5.47499C0.631569 5.52133 0.686977 5.55799 0.747896 5.58288C0.808815 5.60776 0.874046 5.62037 0.939849 5.61999C1.00565 5.62037 1.07088 5.60776 1.1318 5.58288C1.19272 5.55799 1.24813 5.52133 1.29485 5.47499L3.41485 3.35499C3.46171 3.30851 3.49891 3.25321 3.52429 3.19228C3.54968 3.13135 3.56275 3.066 3.56275 2.99999C3.56275 2.93399 3.54968 2.86863 3.52429 2.8077C3.49891 2.74677 3.46171 2.69147 3.41485 2.64499Z" fill="#808080"/>
</svg>
