<svg width="15" height="15" viewBox="0 0 15 15" fill="none" xmlns="http://www.w3.org/2000/svg">
<path d="M7.50044 7.42857C6.7658 7.42867 6.04763 7.21092 5.43675 6.80285C4.82588 6.39478 4.34973 5.81472 4.06853 5.13603C3.78732 4.45734 3.71369 3.71051 3.85695 2.98998C4.00021 2.26944 4.35392 1.60757 4.87336 1.08807C5.39279 0.568567 6.05461 0.214765 6.77512 0.0714076C7.49564 -0.0719499 8.24248 0.00157595 8.92121 0.282686C9.59994 0.563797 10.1801 1.03987 10.5882 1.65069C10.9964 2.26151 11.2142 2.97965 11.2142 3.71429C11.2133 4.699 10.8217 5.64312 10.1255 6.33947C9.42922 7.03581 8.48515 7.4275 7.50044 7.42857ZM7.50044 1.07114C6.97753 1.07104 6.46634 1.22601 6.03151 1.51646C5.59669 1.80691 5.25776 2.21979 5.05761 2.70288C4.85745 3.18596 4.80506 3.71755 4.90705 4.23042C5.00904 4.74329 5.26083 5.21439 5.63058 5.58414C6.00034 5.95389 6.47144 6.20569 6.9843 6.30768C7.49717 6.40967 8.02876 6.35727 8.51185 6.15711C8.99493 5.95696 9.40781 5.61804 9.69826 5.18321C9.98871 4.74839 10.1437 4.2372 10.1436 3.71429C10.1428 3.01353 9.86405 2.3417 9.36854 1.84619C8.87303 1.35067 8.2012 1.07194 7.50044 1.07114Z" fill="white"/>
<path d="M7.50044 1.07114C6.97753 1.07104 6.46634 1.22601 6.03151 1.51646C5.59669 1.80691 5.25776 2.21979 5.05761 2.70288C4.85745 3.18596 4.80506 3.71755 4.90705 4.23042C5.00904 4.74329 5.26083 5.21439 5.63058 5.58414C6.00034 5.95389 6.47144 6.20569 6.9843 6.30768C7.49717 6.40967 8.02876 6.35727 8.51185 6.15711C8.99493 5.95696 9.40781 5.61804 9.69826 5.18321C9.98871 4.74839 10.1437 4.2372 10.1436 3.71429C10.1428 3.01353 9.86405 2.3417 9.36854 1.84619C8.87303 1.35067 8.2012 1.07194 7.50044 1.07114Z" fill="white"/>
<path d="M13.4617 14.8571H1.53827L1 14.36C1 13.5717 1.16813 12.7911 1.49478 12.0628C1.82144 11.3345 2.30023 10.6727 2.90381 10.1153C3.50739 9.5579 4.22394 9.11573 5.01256 8.81406C5.80117 8.51239 6.64641 8.35712 7.5 8.35712C8.35359 8.35712 9.19882 8.51239 9.98744 8.81406C10.7761 9.11573 11.4926 9.5579 12.0962 10.1153C12.6998 10.6727 13.1786 11.3345 13.5052 12.0628C13.8319 12.7911 14 13.5717 14 14.36L13.4617 14.8571ZM2.10201 13.8629H12.898C12.7664 12.6251 12.1408 11.4768 11.1431 10.6414C10.1453 9.80606 8.84674 9.34336 7.5 9.34336C6.15326 9.34336 4.85468 9.80606 3.85693 10.6414C2.85919 11.4768 2.23364 12.6251 2.10201 13.8629Z" fill="white"/>
<path d="M2.10201 13.8629H12.898C12.7664 12.6251 12.1408 11.4768 11.1431 10.6414C10.1453 9.80606 8.84674 9.34336 7.5 9.34336C6.15326 9.34336 4.85468 9.80606 3.85693 10.6414C2.85919 11.4768 2.23364 12.6251 2.10201 13.8629Z" fill="white"/>
</svg>
