<svg width="21" height="21" viewBox="0 0 21 21" fill="none" xmlns="http://www.w3.org/2000/svg">
<path fill-rule="evenodd" clip-rule="evenodd" d="M16.0107 13.9334C15.3473 13.2561 14.5191 13.2561 13.8599 13.9334C13.3571 14.4491 12.981 14.6151 12.4867 15.1396C12.3515 15.2838 12.2374 15.3144 12.0726 15.2183C11.7472 15.0347 11.4008 14.8861 11.0881 14.6851C9.63031 13.7368 8.40916 12.5175 7.32745 11.1453C6.79083 10.4635 6.31334 9.73377 5.97953 8.91219C5.91193 8.74613 5.9246 8.63687 6.05558 8.50139C6.55841 7.99883 6.72742 7.81527 7.2218 7.29959C7.91054 6.5829 7.91053 5.74383 7.21757 5.02276C6.8246 4.61197 6.44466 4.04441 6.12433 3.59879C5.80404 3.15317 5.55277 2.62356 5.1429 2.2084C4.47951 1.53978 3.65135 1.53981 2.99219 2.2128C2.48514 2.72848 1.99921 3.25724 1.48371 3.76418C1.00624 4.23178 0.765372 4.80428 0.714667 5.4729C0.634384 6.56106 0.892133 7.58801 1.25552 8.58877C1.99919 10.6602 3.13164 12.5 4.50489 14.1869C6.35985 16.4681 8.57395 18.2729 11.1641 19.5752C12.3303 20.1608 13.5388 20.611 14.8529 20.6853C15.7571 20.7377 16.5431 20.5017 17.1727 19.7719C17.6036 19.2737 18.0896 18.8192 18.5459 18.3429C19.222 17.6349 19.2262 16.7784 18.5544 16.0792C17.7515 15.2445 16.8177 14.7638 16.0107 13.9334ZM15.6676 10.1814L15.8546 10.1483C16.2628 10.0762 16.5222 9.65356 16.408 9.24198C16.0824 8.06918 15.4755 7.00707 14.6318 6.13091C13.7308 5.19902 12.6319 4.55297 11.4198 4.23517C11.0175 4.12968 10.6155 4.40862 10.5579 4.83366L10.5314 5.02959C10.4818 5.3952 10.7085 5.73637 11.054 5.82893C11.9823 6.07759 12.825 6.57401 13.5162 7.289C14.165 7.95998 14.6306 8.77671 14.8831 9.6773C14.9811 10.0271 15.3205 10.2427 15.6676 10.1814ZM17.4586 3.28596C15.8332 1.60495 13.8186 0.483363 11.5919 0.0144505C11.2001 -0.0680571 10.8228 0.211871 10.7673 0.621482L10.7408 0.81699C10.6897 1.19378 10.9309 1.54565 11.2912 1.62243C13.208 2.03108 14.9433 3.0003 16.3431 4.44405C17.6623 5.80844 18.5757 7.49457 19.0047 9.35225C19.0903 9.72288 19.4369 9.96281 19.8 9.8987L19.9855 9.86598C20.3838 9.79562 20.6389 9.39108 20.545 8.98457C20.0469 6.82757 18.9887 4.8724 17.4586 3.28596Z" fill="white"/>
</svg>
