<svg width="18" height="14" viewBox="0 0 18 14" fill="none" xmlns="http://www.w3.org/2000/svg">
<path d="M17.1333 1.19395C17.0206 1.08034 16.8866 0.990161 16.7389 0.928624C16.5912 0.867086 16.4327 0.835403 16.2727 0.835403C16.1127 0.835403 15.9543 0.867086 15.8066 0.928624C15.6589 0.990161 15.5248 1.08034 15.4121 1.19395L6.38181 10.2364L2.58787 6.43031C2.47088 6.31729 2.33276 6.22843 2.18143 6.16879C2.03009 6.10915 1.86848 6.0799 1.70584 6.08271C1.54319 6.08553 1.3827 6.12035 1.23351 6.18519C1.08433 6.25003 0.949372 6.34362 0.836356 6.46061C0.723339 6.57761 0.634474 6.71572 0.574833 6.86706C0.515192 7.0184 0.485943 7.18 0.488757 7.34265C0.49157 7.50529 0.526392 7.66579 0.591233 7.81497C0.656073 7.96416 0.749663 8.09911 0.866659 8.21213L5.5212 12.8667C5.63389 12.9803 5.76795 13.0705 5.91566 13.132C6.06337 13.1935 6.2218 13.2252 6.38181 13.2252C6.54183 13.2252 6.70026 13.1935 6.84796 13.132C6.99567 13.0705 7.12973 12.9803 7.24242 12.8667L17.1333 2.97577C17.2564 2.86226 17.3546 2.7245 17.4217 2.57117C17.4889 2.41783 17.5235 2.25225 17.5235 2.08486C17.5235 1.91746 17.4889 1.75188 17.4217 1.59855C17.3546 1.44521 17.2564 1.30745 17.1333 1.19395Z" fill="#2A8CE3"/>
</svg>
