<svg width="12" height="8" viewBox="0 0 12 8" fill="none" xmlns="http://www.w3.org/2000/svg">
<path d="M10.8799 0.516376C10.8123 0.44821 10.7319 0.394105 10.6432 0.357183C10.5546 0.32026 10.4596 0.30125 10.3636 0.30125C10.2675 0.30125 10.1725 0.32026 10.0839 0.357183C9.99524 0.394105 9.9148 0.44821 9.84719 0.516376L4.42901 5.94183L2.15265 3.65819C2.08245 3.59038 1.99958 3.53707 1.90878 3.50128C1.81798 3.4655 1.72101 3.44795 1.62343 3.44964C1.52584 3.45132 1.42954 3.47222 1.34003 3.51112C1.25052 3.55002 1.16955 3.60618 1.10174 3.67638C1.03393 3.74657 0.980608 3.82944 0.944823 3.92024C0.909039 4.01105 0.891489 4.10801 0.893178 4.2056C0.894866 4.30318 0.915759 4.39948 0.954663 4.48899C0.993568 4.5785 1.04972 4.65948 1.11992 4.72729L3.91265 7.52001C3.98026 7.58818 4.06069 7.64228 4.14932 7.67921C4.23794 7.71613 4.333 7.73514 4.42901 7.73514C4.52502 7.73514 4.62008 7.71613 4.7087 7.67921C4.79733 7.64228 4.87776 7.58818 4.94537 7.52001L10.8799 1.58547C10.9537 1.51736 11.0127 1.43471 11.053 1.34271C11.0932 1.25071 11.1141 1.15136 11.1141 1.05092C11.1141 0.950484 11.0932 0.851135 11.053 0.759136C11.0127 0.667136 10.9537 0.58448 10.8799 0.516376Z" fill="#2A8CE3"/>
</svg>
