<svg width="20" height="20" viewBox="0 0 20 20" fill="none" xmlns="http://www.w3.org/2000/svg">
<path d="M12.7432 8.57907L10.8349 10.4957L10.8349 2.50407C10.8349 2.28306 10.7471 2.0711 10.5908 1.91482C10.4345 1.75854 10.2226 1.67074 10.0016 1.67074C9.78054 1.67074 9.56858 1.75854 9.4123 1.91482C9.25602 2.0711 9.16822 2.28306 9.16822 2.50407L9.16822 10.4957L7.25989 8.57907C7.18242 8.50097 7.09025 8.43897 6.9887 8.39666C6.88715 8.35436 6.77823 8.33257 6.66822 8.33257C6.55821 8.33257 6.44929 8.35436 6.34774 8.39666C6.24619 8.43897 6.15402 8.50097 6.07656 8.57907C5.99845 8.65654 5.93645 8.74871 5.89414 8.85026C5.85184 8.95181 5.83006 9.06073 5.83006 9.17074C5.83006 9.28075 5.85184 9.38967 5.89414 9.49122C5.93645 9.59277 5.99845 9.68494 6.07656 9.76241L9.40989 13.0957C9.48914 13.1716 9.5826 13.2311 9.68489 13.2707C9.88777 13.3541 10.1153 13.3541 10.3182 13.2707C10.4205 13.2311 10.514 13.1716 10.5932 13.0957L13.9266 9.76241C14.0043 9.68471 14.0659 9.59247 14.1079 9.49095C14.15 9.38943 14.1716 9.28062 14.1716 9.17074C14.1716 9.06086 14.15 8.95205 14.1079 8.85053C14.0659 8.74901 14.0043 8.65677 13.9266 8.57907C13.8489 8.50138 13.7566 8.43974 13.6551 8.39769C13.5536 8.35564 13.4448 8.334 13.3349 8.334C13.225 8.334 13.1162 8.35564 13.0147 8.39769C12.9132 8.43974 12.8209 8.50138 12.7432 8.57907Z" fill="white"/>
<path d="M17.4998 10C17.2788 10 17.0669 10.0878 16.9106 10.2441C16.7543 10.4004 16.6665 10.6123 16.6665 10.8333V15.8333C16.6665 16.0543 16.5787 16.2663 16.4224 16.4226C16.2661 16.5789 16.0542 16.6667 15.8332 16.6667H4.1665C3.94549 16.6667 3.73353 16.5789 3.57725 16.4226C3.42097 16.2663 3.33317 16.0543 3.33317 15.8333V10.8333C3.33317 10.6123 3.24537 10.4004 3.08909 10.2441C2.93281 10.0878 2.72085 10 2.49984 10C2.27882 10 2.06686 10.0878 1.91058 10.2441C1.7543 10.4004 1.6665 10.6123 1.6665 10.8333V15.8333C1.6665 16.4964 1.9299 17.1323 2.39874 17.6011C2.86758 18.0699 3.50346 18.3333 4.1665 18.3333H15.8332C16.4962 18.3333 17.1321 18.0699 17.6009 17.6011C18.0698 17.1323 18.3332 16.4964 18.3332 15.8333V10.8333C18.3332 10.6123 18.2454 10.4004 18.0891 10.2441C17.9328 10.0878 17.7208 10 17.4998 10Z" fill="white"/>
</svg>
