<svg width="20" height="20" viewBox="0 0 20 20" fill="none" xmlns="http://www.w3.org/2000/svg">
<path d="M12.7431 8.57932L10.8348 10.496L10.8348 2.50432C10.8348 2.2833 10.747 2.07134 10.5907 1.91506C10.4344 1.75878 10.2224 1.67098 10.0014 1.67098C9.78042 1.67098 9.56846 1.75878 9.41218 1.91506C9.2559 2.07134 9.1681 2.2833 9.1681 2.50432L9.1681 10.496L7.25977 8.57932C7.1823 8.50121 7.09013 8.43922 6.98858 8.39691C6.88703 8.3546 6.77811 8.33282 6.6681 8.33282C6.55809 8.33282 6.44917 8.3546 6.34762 8.39691C6.24607 8.43922 6.1539 8.50121 6.07643 8.57932C5.99833 8.65679 5.93633 8.74895 5.89402 8.8505C5.85172 8.95205 5.82994 9.06097 5.82994 9.17098C5.82994 9.28099 5.85172 9.38992 5.89402 9.49146C5.93633 9.59301 5.99833 9.68518 6.07643 9.76265L9.40977 13.096C9.48902 13.1719 9.58247 13.2313 9.68477 13.271C9.88765 13.3543 10.1152 13.3543 10.3181 13.271C10.4204 13.2313 10.5138 13.1719 10.5931 13.096L13.9264 9.76265C14.0041 9.68495 14.0658 9.59271 14.1078 9.49119C14.1499 9.38967 14.1715 9.28087 14.1715 9.17098C14.1715 9.0611 14.1499 8.9523 14.1078 8.85078C14.0658 8.74926 14.0041 8.65702 13.9264 8.57932C13.8487 8.50162 13.7565 8.43999 13.655 8.39794C13.5535 8.35588 13.4446 8.33424 13.3348 8.33424C13.2249 8.33424 13.1161 8.35588 13.0146 8.39794C12.913 8.43999 12.8208 8.50162 12.7431 8.57932Z" fill="#2A8CE3"/>
<path d="M17.5 10C17.2789 10 17.067 10.0878 16.9107 10.2441C16.7544 10.4004 16.6666 10.6123 16.6666 10.8333V15.8333C16.6666 16.0543 16.5788 16.2663 16.4225 16.4226C16.2663 16.5789 16.0543 16.6667 15.8333 16.6667H4.16663C3.94561 16.6667 3.73365 16.5789 3.57737 16.4226C3.42109 16.2663 3.33329 16.0543 3.33329 15.8333V10.8333C3.33329 10.6123 3.2455 10.4004 3.08921 10.2441C2.93293 10.0878 2.72097 10 2.49996 10C2.27895 10 2.06698 10.0878 1.9107 10.2441C1.75442 10.4004 1.66663 10.6123 1.66663 10.8333V15.8333C1.66663 16.4964 1.93002 17.1323 2.39886 17.6011C2.8677 18.0699 3.50358 18.3333 4.16663 18.3333H15.8333C16.4963 18.3333 17.1322 18.0699 17.6011 17.6011C18.0699 17.1323 18.3333 16.4964 18.3333 15.8333V10.8333C18.3333 10.6123 18.2455 10.4004 18.0892 10.2441C17.9329 10.0878 17.721 10 17.5 10Z" fill="#2A8CE3"/>
</svg>
