<svg width="47" height="47" viewBox="0 0 47 47" fill="none" xmlns="http://www.w3.org/2000/svg">
<rect width="47" height="47" fill="#28A219"/>
<g clip-path="url(#clip0_84_1246)">
<path fill-rule="evenodd" clip-rule="evenodd" d="M20.8451 18.8265C20.6609 18.3854 20.5212 18.3686 20.2421 18.3573C20.1471 18.3518 20.0413 18.3463 19.9239 18.3463C19.5608 18.3463 19.1812 18.4525 18.9522 18.687C18.6731 18.9719 17.9807 19.6364 17.9807 20.9991C17.9807 22.3619 18.9745 23.6798 19.1085 23.8644C19.2482 24.0484 21.0461 26.8856 23.8377 28.042C26.0208 28.9467 26.6686 28.8628 27.1654 28.7569C27.8913 28.6005 28.8013 28.0641 29.0304 27.4165C29.2593 26.7685 29.2593 26.2156 29.1922 26.0983C29.1252 25.9811 28.9409 25.9143 28.6618 25.7744C28.3827 25.6348 27.0259 24.9646 26.7691 24.8752C26.5178 24.7804 26.2777 24.8139 26.088 25.082C25.82 25.4562 25.5577 25.836 25.3454 26.0649C25.178 26.2437 24.9042 26.2661 24.6754 26.1711C24.3682 26.0428 23.5085 25.7409 22.4476 24.7971C21.6267 24.0656 21.0685 23.1554 20.9067 22.8817C20.7447 22.6025 20.8899 22.4404 21.0183 22.2897C21.158 22.1165 21.2919 21.9937 21.4314 21.8316C21.5711 21.6697 21.6492 21.586 21.7385 21.396C21.8335 21.2118 21.7664 21.0218 21.6995 20.8821C21.6324 20.7421 21.0741 19.3793 20.8451 18.8265ZM23.4972 14.001C18.26 14.001 14 18.2622 14 23.5008C14 25.5784 14.6701 27.5052 15.809 29.069L14.6252 32.5987L18.2768 31.4317C19.7787 32.4258 21.5709 33.001 23.5029 33.001C28.74 33.001 33 28.7395 33 23.5011C33 18.2625 28.74 14.0013 23.5029 14.0013H23.4974L23.4972 14.001Z" fill="white"/>
</g>
<defs>
<clipPath id="clip0_84_1246">
<rect width="19" height="19" fill="white" transform="translate(14 14)"/>
</clipPath>
</defs>
</svg>
