<svg width="19" height="19" viewBox="0 0 19 19" fill="none" xmlns="http://www.w3.org/2000/svg">
<path fill-rule="evenodd" clip-rule="evenodd" d="M6.84505 4.82671C6.66084 4.38556 6.52116 4.36878 6.24209 4.3575C6.14709 4.35201 6.04126 4.34652 5.92384 4.34652C5.56077 4.34652 5.18121 4.45265 4.95217 4.68718C4.67311 4.97203 3.98065 5.63659 3.98065 6.99925C3.98065 8.36205 4.97444 9.68003 5.10848 9.86453C5.24816 10.0486 7.04603 12.8858 9.8377 14.0422C12.0208 14.9469 12.6685 14.863 13.1654 14.757C13.8912 14.6007 14.8013 14.0643 15.0303 13.4166C15.2592 12.7687 15.2592 12.2158 15.1921 12.0985C15.1252 11.9813 14.9408 11.9145 14.6618 11.7746C14.3827 11.6349 13.0258 10.9648 12.769 10.8754C12.5177 10.7805 12.2777 10.8141 12.088 11.0822C11.8199 11.4564 11.5576 11.8362 11.3454 12.0651C11.1779 12.2438 10.9042 12.2663 10.6753 12.1713C10.3682 12.043 9.50846 11.7411 8.44758 10.7973C7.62672 10.0658 7.06845 9.1556 6.90665 8.88188C6.7447 8.60267 6.88987 8.44057 7.01827 8.28991C7.15795 8.11668 7.29184 7.99393 7.43138 7.83183C7.57105 7.66989 7.64913 7.58617 7.73849 7.39617C7.83349 7.21196 7.7664 7.02196 7.69945 6.88228C7.63236 6.7423 7.07409 5.3795 6.84505 4.82671ZM9.49718 0.00115967C4.26001 0.00115967 0 4.26235 0 9.50101C0 11.5785 0.670047 13.5054 1.80901 15.0692L0.625219 18.5989L4.27678 17.4319C5.77867 18.426 7.57091 19.0012 9.50282 19.0012C14.74 19.0012 19 14.7397 19 9.50131C19 4.26265 14.74 0.00145654 9.50282 0.00145654H9.49733L9.49718 0.00115967Z" fill="white"/>
</svg>
